<?xml version="1.0" standalone="no"?>
<!DOCTYPE svg PUBLIC "-//W3C//DTD SVG 20010904//EN"
 "http://www.w3.org/TR/2001/REC-SVG-20010904/DTD/svg10.dtd">
<svg version="1.0" xmlns="http://www.w3.org/2000/svg"
 width="986.000000pt" height="986.000000pt" viewBox="0 0 986.000000 986.000000"
 preserveAspectRatio="xMidYMid meet">
<metadata>
Created by potrace 1.11, written by Peter Selinger 2001-2013
</metadata>
<g transform="translate(0.000000,986.000000) scale(0.100000,-0.100000)"
fill="#000000" stroke="none">
<path d="M2793 8627 l-2133 -1232 0 -2465 0 -2465 2135 -1232 2135 -1233 2135
1233 2135 1232 0 2465 0 2465 -2131 1230 c-1172 677 -2134 1231 -2137 1232 -4
1 -967 -553 -2139 -1230z m4055 -386 l1912 -1104 0 -2207 0 -2207 -1915 -1106
-1915 -1105 -1915 1105 -1915 1106 0 2207 0 2207 1913 1106 c1051 608 1915
1104 1918 1104 3 -1 866 -499 1917 -1106z"/>
<path d="M5085 6968 c-5 -16 -775 -4070 -775 -4080 0 -5 101 -8 224 -8 205 0
225 2 230 18 3 9 179 919 391 2022 212 1103 388 2017 391 2033 l6 27 -232 0
c-176 0 -232 -3 -235 -12z"/>
<path d="M4038 6380 c-42 -26 -745 -409 -968 -528 -47 -25 -102 -56 -122 -69
-21 -13 -39 -23 -41 -23 -5 0 -80 -41 -532 -288 -227 -124 -295 -161 -365
-199 -25 -14 -51 -32 -57 -41 -10 -12 -13 -91 -13 -316 0 -166 3 -310 6 -321
3 -11 26 -32 52 -47 55 -30 130 -71 227 -123 39 -21 93 -50 120 -65 178 -98
269 -147 335 -183 41 -22 80 -43 85 -47 6 -4 55 -31 110 -61 55 -29 117 -63
137 -76 21 -13 39 -23 42 -23 2 0 39 -19 82 -43 83 -46 169 -92 282 -153 63
-35 84 -46 192 -106 25 -14 77 -42 115 -63 158 -86 283 -154 325 -179 25 -14
51 -26 58 -26 9 0 12 83 12 383 l0 383 -745 372 c-410 205 -745 375 -745 378
0 4 333 169 480 237 30 13 145 69 255 122 110 54 241 117 290 140 50 24 174
84 278 133 l187 91 0 385 c0 437 6 410 -82 356z"/>
<path d="M5742 6023 l3 -378 211 -105 c188 -94 424 -210 1076 -529 109 -53
197 -99 198 -102 0 -3 -179 -94 -397 -203 -219 -109 -553 -275 -743 -369
l-345 -172 -3 -382 c-3 -431 -8 -405 75 -354 27 15 80 45 118 66 78 42 228
124 380 207 55 30 132 72 170 93 39 21 93 50 120 65 28 15 95 52 150 82 55 30
132 72 170 93 39 21 111 61 160 88 98 54 240 132 350 192 39 21 96 53 128 71
32 19 60 34 62 34 2 0 45 24 97 53 51 28 114 63 141 77 l47 25 0 331 0 331
-27 14 c-16 7 -53 28 -83 45 -30 17 -93 51 -140 76 -47 25 -179 97 -295 160
-203 111 -276 151 -442 240 -43 22 -136 73 -208 113 -71 40 -170 94 -220 120
-49 27 -119 65 -155 85 -36 20 -110 61 -165 90 -55 29 -104 56 -110 60 -5 4
-64 36 -130 70 -66 35 -129 69 -140 77 -11 7 -28 13 -37 13 -17 0 -18 -20 -16
-377z"/>
</g>
</svg>
